<svg width="54" height="10" viewBox="0 0 54 10" fill="none" xmlns="http://www.w3.org/2000/svg">
<path d="M3.00387 2.5907C3.40344 2.37008 3.85504 2.25791 4.31275 2.2656C4.72191 2.25722 5.12633 2.35333 5.48685 2.54462C5.73639 2.6808 5.95097 2.87171 6.11407 3.10266C6.20039 3.22674 6.31672 3.32756 6.45251 3.39596C6.5883 3.46436 6.73925 3.49816 6.89163 3.49431C7.06361 3.49415 7.23195 3.4453 7.37667 3.35354C7.5214 3.26178 7.63646 3.13096 7.7082 2.97659C7.77994 2.82221 7.80536 2.65076 7.78145 2.48255C7.75754 2.31434 7.68529 2.15644 7.57328 2.02754C7.32973 1.75215 7.04684 1.51328 6.73352 1.31848C6.04603 0.908696 5.26215 0.68323 4.45939 0.664374C3.65662 0.645518 2.86277 0.833926 2.15634 1.21097C1.49983 1.57243 0.955142 2.1033 0.580498 2.74685C0.199839 3.42012 0 4.17842 0 4.94955C0 5.72068 0.199839 6.47898 0.580498 7.15225C0.950483 7.79234 1.4875 8.32272 2.1356 8.68813C2.80196 9.05389 3.55301 9.24264 4.31534 9.23593C5.16315 9.24775 5.99703 9.02233 6.72056 8.58574C7.02606 8.39679 7.30271 8.16579 7.54218 7.89971C7.65819 7.77198 7.73377 7.61348 7.75956 7.44378C7.78536 7.27409 7.76024 7.10066 7.68732 6.94491C7.6134 6.78325 7.4928 6.64673 7.34065 6.55247C7.1885 6.45821 7.01156 6.4104 6.83202 6.41503C6.6902 6.41587 6.55072 6.4508 6.42563 6.51681C6.30054 6.58282 6.19361 6.67791 6.11407 6.79388C5.95641 7.03071 5.74412 7.22722 5.49463 7.36728C5.13411 7.55857 4.72969 7.65468 4.32052 7.64629C3.8668 7.65229 3.4196 7.53922 3.0246 7.31864C2.64304 7.09783 2.33361 6.77357 2.13301 6.38431C1.91795 5.93493 1.8064 5.44405 1.8064 4.94699C1.8064 4.44993 1.91795 3.95905 2.13301 3.50966C2.32851 3.12751 2.6307 2.80863 3.00387 2.5907Z" fill="#02C9D7"/>
<path d="M13.6952 2.7419C13.1517 2.46111 12.5474 2.31445 11.9341 2.31445C11.3207 2.31445 10.7164 2.46111 10.1729 2.7419C9.64583 3.02531 9.21087 3.45046 8.91846 3.96805C8.60761 4.52211 8.44942 5.14703 8.4597 5.78038C8.44739 6.41319 8.60096 7.03839 8.9055 7.59528C9.19121 8.11067 9.61779 8.53642 10.1366 8.82398C10.6695 9.11128 11.2688 9.25683 11.8757 9.24634C12.496 9.25362 13.1079 9.10473 13.6537 8.81374C14.1937 8.5321 14.6427 8.10637 14.9497 7.58504C15.2674 7.03231 15.4293 6.40563 15.4188 5.77014C15.4299 5.13702 15.2726 4.51211 14.9626 3.95781C14.6641 3.44301 14.2249 3.02162 13.6952 2.7419ZM13.6045 5.78038C13.6121 6.14817 13.5228 6.5116 13.3453 6.83502C13.197 7.10042 12.9772 7.32013 12.7103 7.46985C12.4505 7.61027 12.1589 7.68337 11.8628 7.68231C11.648 7.68674 11.4347 7.64588 11.2371 7.56245C11.0396 7.47902 10.8623 7.35495 10.7172 7.19851C10.3868 6.80099 10.2235 6.29336 10.261 5.78038C10.2483 5.41568 10.3266 5.05349 10.4891 4.72574C10.622 4.46385 10.8303 4.24657 11.0878 4.10116C11.3419 3.96073 11.6287 3.88836 11.9198 3.89125C12.2127 3.8899 12.501 3.96307 12.757 4.10372C13.0184 4.24903 13.2318 4.46594 13.3712 4.7283C13.538 5.05381 13.6183 5.41583 13.6045 5.78038Z" fill="#02C9D7"/>
<path d="M22.2457 0.773441C22.0113 0.773441 21.7865 0.865406 21.6207 1.0291C21.455 1.1928 21.3619 1.41483 21.3619 1.64633V4.17541H18.0365V1.64633C18.0243 1.42267 17.9257 1.21215 17.761 1.05811C17.5964 0.90406 17.3782 0.818202 17.1514 0.818202C16.9246 0.818202 16.7064 0.90406 16.5418 1.05811C16.3772 1.21215 16.2786 1.42267 16.2663 1.64633V9.15421H18.0365V5.68313H21.3644V9.15421H23.1347V1.64633C23.1343 1.53137 23.1111 1.41759 23.0662 1.3115C23.0213 1.20542 22.9558 1.1091 22.8732 1.02804C22.7907 0.946987 22.6928 0.882785 22.5851 0.8391C22.4774 0.795415 22.3621 0.773105 22.2457 0.773441Z" fill="#02C9D7"/>
<path d="M29.0959 2.73178C28.5699 2.44914 27.9789 2.30542 27.3801 2.31454C26.7625 2.30357 26.1526 2.45085 25.6099 2.74202C25.0943 3.0258 24.6736 3.4519 24.3995 3.96816C24.1081 4.52822 23.962 5.15095 23.9744 5.7805C23.9624 6.41234 24.1131 7.03685 24.4124 7.59539C24.695 8.10966 25.1179 8.53535 25.6332 8.82409C26.1684 9.11258 26.7705 9.25817 27.3801 9.24646C28.0984 9.26948 28.8047 9.06004 29.3914 8.65003C29.5703 8.52023 29.7353 8.3727 29.8838 8.20974C29.9946 8.09058 30.0675 7.94184 30.0933 7.78207C30.1191 7.6223 30.0967 7.45856 30.029 7.31126C29.9638 7.16565 29.8569 7.04204 29.7215 6.95563C29.5862 6.86922 29.4281 6.82378 29.2669 6.8249H29.2255C29.0888 6.8288 28.955 6.86472 28.8352 6.9297C28.7153 6.99467 28.6128 7.08685 28.5361 7.19863C28.4019 7.37237 28.2258 7.51022 28.0239 7.59964C27.822 7.68905 27.6007 7.72719 27.3801 7.71058C26.9751 7.72397 26.5808 7.58069 26.2812 7.31126C26.0369 7.09841 25.8717 6.81096 25.812 6.49468H30.6121L30.6432 6.30782C30.678 6.08423 30.6945 5.85823 30.6925 5.63203C30.7041 5.03175 30.5595 4.43857 30.2726 3.90929C30.0006 3.41504 29.5927 3.00682 29.0959 2.73178ZM28.8574 4.9972H25.8457C25.9146 4.70053 26.0748 4.43224 26.3045 4.22926C26.5818 3.98021 26.9457 3.84635 27.3205 3.85553C27.7272 3.84083 28.1247 3.97688 28.435 4.23694C28.667 4.42936 28.8177 4.70057 28.8574 4.9972Z" fill="#02C9D7"/>
<path d="M37.2161 2.41645C37.0262 2.41714 36.8414 2.47755 36.6885 2.58893C36.5357 2.70031 36.4227 2.85688 36.366 3.03592C36.181 2.87885 35.9783 2.74315 35.7621 2.63147C35.3227 2.41342 34.8361 2.30446 34.3444 2.31406C33.7674 2.30926 33.2002 2.46152 32.705 2.75412C32.2099 3.04673 31.8059 3.46838 31.5374 3.97281C31.2459 4.52546 31.0997 5.14163 31.1124 5.76466C31.1036 6.38729 31.2496 7.00253 31.5374 7.55652C31.803 8.06891 32.2043 8.50061 32.6986 8.8057C33.1547 9.07718 33.6726 9.23117 34.2047 9.25353C34.7368 9.2759 35.2661 9.16592 35.744 8.93369C35.9523 8.82861 36.1479 8.70067 36.3271 8.55228V9.15383H38.1077V3.29702C38.1077 3.06348 38.0138 2.8395 37.8466 2.67436C37.6794 2.50923 37.4526 2.41645 37.2161 2.41645ZM36.3271 5.78002C36.3345 6.13615 36.2507 6.48835 36.0835 6.80394C35.9379 7.07442 35.7189 7.29954 35.4511 7.45413C35.1983 7.6013 34.91 7.67825 34.6165 7.67683C34.3242 7.67719 34.0373 7.5984 33.7871 7.44901C33.5181 7.29031 33.2991 7.06073 33.1547 6.78602C32.9886 6.47001 32.9049 6.1181 32.9111 5.7621C32.9007 5.40567 32.9846 5.05272 33.1547 4.73819C33.2991 4.47264 33.5153 4.25196 33.7794 4.1008C34.0347 3.95827 34.3233 3.88415 34.6165 3.88577C34.9097 3.88345 35.1981 3.95952 35.4511 4.10592C35.7163 4.26097 35.9333 4.485 36.0783 4.75354C36.2478 5.06921 36.3318 5.42283 36.3219 5.78002H36.3271Z" fill="#02C9D7"/>
<path d="M40.2693 0.258789C40.0347 0.259467 39.8099 0.352 39.6442 0.516105C39.4785 0.680211 39.3855 0.902499 39.3855 1.13424V9.15408H41.1531V1.13424C41.1531 0.902499 41.0601 0.680211 40.8944 0.516105C40.7288 0.352 40.504 0.259467 40.2693 0.258789Z" fill="#02C9D7"/>
<path d="M44.4266 1.73321C44.4332 1.61375 44.415 1.49422 44.3732 1.38193C44.3314 1.26965 44.2669 1.16695 44.1836 1.0801C44.1002 0.993257 43.9999 0.92409 43.8886 0.876822C43.7773 0.829554 43.6575 0.805176 43.5363 0.805176C43.4152 0.805176 43.2953 0.829554 43.1841 0.876822C43.0728 0.92409 42.9724 0.993257 42.8891 1.0801C42.8058 1.16695 42.7413 1.26965 42.6995 1.38193C42.6577 1.49422 42.6395 1.61375 42.646 1.73321V2.41667H41.8944V3.92439H42.659V7.19837C42.659 7.87927 42.843 8.38355 43.2085 8.70097C43.6382 9.03422 44.1768 9.20001 44.7221 9.16685H45.9895V7.63097H44.9528C44.678 7.63097 44.5744 7.5721 44.5355 7.53626C44.4615 7.43766 44.4273 7.31538 44.4396 7.19325V3.92439H45.9947V2.41667H44.4396L44.4266 1.73321Z" fill="#02C9D7"/>
<path d="M52.6583 3.65296C52.4359 3.22925 52.0914 2.88009 51.6682 2.64952C51.2343 2.42225 50.7494 2.3069 50.2583 2.31419C49.8411 2.31033 49.4275 2.39046 49.0427 2.54969C48.8531 2.62829 48.6731 2.7279 48.5062 2.84662V1.13412C48.5062 0.902616 48.4131 0.680592 48.2473 0.516894C48.0816 0.353195 47.8568 0.26123 47.6224 0.26123C47.388 0.26123 47.1632 0.353195 46.9974 0.516894C46.8317 0.680592 46.7386 0.902616 46.7386 1.13412V9.15396H48.5062V5.40642C48.4788 4.99514 48.6124 4.58919 48.8794 4.27243C49.0104 4.14183 49.1681 4.04027 49.3419 3.9745C49.5158 3.90874 49.7018 3.88028 49.8876 3.89102C50.0725 3.87969 50.2577 3.90765 50.4308 3.973C50.6038 4.03835 50.7606 4.13959 50.8907 4.26987C51.1546 4.58906 51.2861 4.99522 51.2587 5.40642V9.15396H53.0264V5.21955C53.038 4.6752 52.9115 4.13663 52.6583 3.65296Z" fill="#02C9D7"/>
</svg>
