<svg width="32" height="32" viewBox="0 0 32 32" fill="none" xmlns="http://www.w3.org/2000/svg">
<path d="M14.0454 21.8402H13.2679C13.0806 21.8161 12.9085 21.7256 12.7839 21.5855C12.6592 21.4453 12.5905 21.2652 12.5905 21.0786C12.5905 20.8921 12.6592 20.7119 12.7839 20.5718C12.9085 20.4317 13.0806 20.3411 13.2679 20.3171H14.0454C15.7757 20.3151 17.4344 19.6353 18.6579 18.427C19.8814 17.2187 20.5696 15.5804 20.5717 13.8715V2.53932C20.5717 2.26776 20.4624 2.00732 20.268 1.8153C20.0736 1.62328 19.8099 1.5154 19.5349 1.5154H12.8584C12.5834 1.5154 12.3197 1.62328 12.1253 1.8153C11.9309 2.00732 11.8216 2.26776 11.8216 2.53932V9.87313C11.8209 10.3529 11.6277 10.8128 11.2842 11.1521C10.9407 11.4913 10.475 11.6822 9.9892 11.6829H2.57135C2.29639 11.6829 2.0327 11.7908 1.83827 11.9828C1.64384 12.1748 1.53462 12.4353 1.53462 12.7068V19.3009C1.53462 19.5724 1.64384 19.8329 1.83827 20.0249C2.0327 20.2169 2.29639 20.3248 2.57135 20.3248H7.33515C7.4448 20.3107 7.55622 20.3199 7.66199 20.3517C7.76776 20.3836 7.86543 20.4373 7.9485 20.5094C8.03157 20.5814 8.09812 20.6702 8.14371 20.7697C8.18929 20.8692 8.21288 20.9771 8.21288 21.0863C8.21288 21.1955 8.18929 21.3035 8.14371 21.4029C8.09812 21.5024 8.03157 21.5912 7.9485 21.6632C7.86543 21.7353 7.76776 21.7891 7.66199 21.8209C7.55622 21.8527 7.4448 21.8619 7.33515 21.8479H2.57135C2.23315 21.8475 1.89833 21.7813 1.58604 21.6531C1.27375 21.5249 0.9901 21.3372 0.751317 21.1006C0.512534 20.8641 0.323296 20.5834 0.194423 20.2746C0.06555 19.9658 -0.000431977 19.6349 0.000249364 19.3009V12.6991C0.000935513 12.0259 0.272039 11.3804 0.754066 10.9043C1.23609 10.4283 1.88966 10.1605 2.57135 10.1598H9.99697C10.074 10.1598 10.1478 10.1296 10.2022 10.0759C10.2567 10.0221 10.2873 9.94917 10.2873 9.87313V2.53932C10.2879 1.86606 10.559 1.22056 11.0411 0.744497C11.5231 0.26843 12.1767 0.000677666 12.8584 0L19.5427 0C20.2244 0.000677666 20.878 0.26843 21.36 0.744497C21.842 1.22056 22.1131 1.86606 22.1138 2.53932V13.8715C22.1118 15.9843 21.261 18.01 19.7484 19.504C18.2357 20.9979 16.1847 21.8381 14.0454 21.8402Z" fill="#02C9D7"/>
<path d="M18.7779 31.9973H12.0909C11.4093 31.9966 10.7557 31.7288 10.2737 31.2528C9.79163 30.7767 9.52052 30.1312 9.51984 29.4579V18.1283C9.5219 16.0155 10.3726 13.9898 11.8853 12.4958C13.398 11.0019 15.449 10.1617 17.5882 10.1596H18.3658C18.572 10.1596 18.7698 10.2405 18.9156 10.3846C19.0614 10.5286 19.1433 10.7239 19.1433 10.9276C19.1433 11.1312 19.0614 11.3266 18.9156 11.4706C18.7698 11.6146 18.572 11.6955 18.3658 11.6955H17.5882C15.8602 11.6975 14.2034 12.3755 12.9803 13.5811C11.7572 14.7867 11.0675 16.4217 11.062 18.1283V29.4605C11.062 29.7321 11.1712 29.9925 11.3656 30.1845C11.5601 30.3765 11.8238 30.4844 12.0987 30.4844H18.7857C19.0606 30.4844 19.3243 30.3765 19.5187 30.1845C19.7132 29.9925 19.8224 29.7321 19.8224 29.4605V22.1267C19.8231 21.6469 20.0164 21.187 20.3599 20.8477C20.7034 20.5085 21.169 20.3176 21.6548 20.3169H29.0804C29.3554 20.3169 29.6191 20.209 29.8135 20.017C30.008 19.825 30.1172 19.5645 30.1172 19.293V12.699C30.1172 12.4274 30.008 12.167 29.8135 11.9749C29.6191 11.7829 29.3554 11.675 29.0804 11.675H24.2985C24.0923 11.675 23.8945 11.5941 23.7487 11.4501C23.6029 11.3061 23.5209 11.1108 23.5209 10.9071C23.5209 10.7034 23.6029 10.5081 23.7487 10.3641C23.8945 10.2201 24.0923 10.1392 24.2985 10.1392H29.0623C29.744 10.1398 30.3976 10.4076 30.8796 10.8837C31.3616 11.3597 31.6327 12.0052 31.6334 12.6785V19.3007C31.6327 19.9739 31.3616 20.6194 30.8796 21.0955C30.3976 21.5716 29.744 21.8393 29.0623 21.84H21.6367C21.5601 21.8407 21.487 21.8712 21.4331 21.9249C21.3792 21.9785 21.349 22.0511 21.349 22.1267V29.4605C21.3476 30.1333 21.0762 30.7781 20.5943 31.2537C20.1123 31.7292 19.4591 31.9966 18.7779 31.9973Z" fill="#FB9678"/>
</svg>
